<svg width="174" height="41" viewBox="0 0 174 41" fill="none" xmlns="http://www.w3.org/2000/svg">
<rect width="40" height="40" rx="6" fill="url(#paint0_linear_1_2557)"/>
<path d="M52.288 28.824L54.592 26.16C55.96 27.48 57.352 28.476 58.768 29.148C60.208 29.796 61.708 30.12 63.268 30.12C65.068 30.12 66.532 29.724 67.66 28.932C68.812 28.14 69.388 27.132 69.388 25.908C69.388 24.804 68.992 23.952 68.2 23.352C67.408 22.728 66.1 22.26 64.276 21.948L60.064 21.264C57.76 20.88 56.032 20.148 54.88 19.068C53.752 17.964 53.188 16.512 53.188 14.712C53.188 12.528 54.04 10.776 55.744 9.456C57.448 8.136 59.692 7.476 62.476 7.476C64.276 7.476 66.064 7.776 67.84 8.376C69.616 8.952 71.212 9.792 72.628 10.896L70.54 13.776C69.172 12.744 67.804 11.976 66.436 11.472C65.068 10.944 63.688 10.68 62.296 10.68C60.664 10.68 59.344 11.028 58.336 11.724C57.328 12.42 56.824 13.32 56.824 14.424C56.824 15.456 57.172 16.248 57.868 16.8C58.564 17.328 59.716 17.724 61.324 17.988L65.392 18.636C68.032 19.068 69.976 19.86 71.224 21.012C72.496 22.14 73.132 23.676 73.132 25.62C73.132 26.772 72.892 27.828 72.412 28.788C71.932 29.748 71.248 30.564 70.36 31.236C69.496 31.908 68.44 32.436 67.192 32.82C65.944 33.18 64.576 33.36 63.088 33.36C61.072 33.36 59.128 32.964 57.256 32.172C55.384 31.38 53.728 30.264 52.288 28.824ZM76.2021 33V7.8L79.8021 7.008V16.512C80.5221 15.792 81.3381 15.252 82.2501 14.892C83.1861 14.508 84.2061 14.316 85.3101 14.316C87.3981 14.316 89.1141 14.988 90.4581 16.332C91.8021 17.652 92.4741 19.368 92.4741 21.48V33H88.8741V22.092C88.8741 20.652 88.4541 19.524 87.6141 18.708C86.7981 17.868 85.7061 17.448 84.3381 17.448C83.3781 17.448 82.5021 17.652 81.7101 18.06C80.9421 18.468 80.3061 19.056 79.8021 19.824V33H76.2021ZM95.7999 23.82C95.7999 22.5 96.0399 21.264 96.5199 20.112C97.0239 18.936 97.7079 17.928 98.5719 17.088C99.4359 16.224 100.444 15.552 101.596 15.072C102.772 14.568 104.02 14.316 105.34 14.316C106.66 14.316 107.896 14.568 109.048 15.072C110.224 15.552 111.232 16.224 112.072 17.088C112.936 17.928 113.608 18.936 114.088 20.112C114.592 21.264 114.844 22.5 114.844 23.82C114.844 25.164 114.592 26.424 114.088 27.6C113.608 28.752 112.936 29.76 112.072 30.624C111.232 31.464 110.224 32.136 109.048 32.64C107.896 33.12 106.66 33.36 105.34 33.36C104.02 33.36 102.772 33.12 101.596 32.64C100.444 32.136 99.4359 31.464 98.5719 30.624C97.7079 29.76 97.0239 28.752 96.5199 27.6C96.0399 26.424 95.7999 25.164 95.7999 23.82ZM105.34 30.192C106.996 30.192 108.4 29.58 109.552 28.356C110.728 27.108 111.316 25.596 111.316 23.82C111.316 22.044 110.728 20.544 109.552 19.32C108.4 18.096 106.996 17.484 105.34 17.484C103.684 17.484 102.268 18.096 101.092 19.32C99.9159 20.544 99.3279 22.044 99.3279 23.82C99.3279 25.596 99.9039 27.108 101.056 28.356C102.232 29.58 103.66 30.192 105.34 30.192ZM118.249 40.452V14.676H121.813V16.44C122.557 15.768 123.409 15.264 124.369 14.928C125.329 14.568 126.349 14.388 127.429 14.388C128.725 14.388 129.937 14.64 131.065 15.144C132.193 15.624 133.165 16.284 133.981 17.124C134.821 17.964 135.481 18.96 135.961 20.112C136.441 21.264 136.681 22.5 136.681 23.82C136.681 25.14 136.441 26.388 135.961 27.564C135.481 28.716 134.821 29.712 133.981 30.552C133.165 31.392 132.181 32.064 131.029 32.568C129.877 33.048 128.653 33.288 127.357 33.288C126.349 33.288 125.365 33.132 124.405 32.82C123.469 32.508 122.617 32.064 121.849 31.488V40.452H118.249ZM126.961 17.52C125.929 17.52 124.969 17.712 124.081 18.096C123.193 18.48 122.449 19.02 121.849 19.716V27.996C122.425 28.668 123.157 29.196 124.045 29.58C124.957 29.964 125.929 30.156 126.961 30.156C128.713 30.156 130.177 29.556 131.353 28.356C132.553 27.156 133.153 25.656 133.153 23.856C133.153 22.056 132.553 20.556 131.353 19.356C130.153 18.132 128.689 17.52 126.961 17.52ZM140.116 33V7.8L143.716 7.008V22.74L152.608 14.676H156.82L147.388 23.28L157.324 33H152.572L143.716 24.36V33H140.116ZM164.088 33.324C162.096 33.324 160.476 32.808 159.228 31.776C157.98 30.744 157.356 29.4 157.356 27.744C157.356 26.016 158.016 24.66 159.336 23.676C160.656 22.668 162.468 22.164 164.772 22.164C165.66 22.164 166.524 22.26 167.364 22.452C168.204 22.62 169.008 22.86 169.776 23.172V21.228C169.776 19.932 169.392 18.96 168.624 18.312C167.856 17.664 166.752 17.34 165.312 17.34C164.472 17.34 163.596 17.472 162.684 17.736C161.772 17.976 160.752 18.36 159.624 18.888L158.292 16.188C159.66 15.54 160.956 15.072 162.18 14.784C163.404 14.472 164.616 14.316 165.816 14.316C168.192 14.316 170.028 14.892 171.324 16.044C172.644 17.172 173.304 18.78 173.304 20.868V33H169.776V31.416C168.96 32.064 168.084 32.544 167.148 32.856C166.212 33.168 165.192 33.324 164.088 33.324ZM160.812 27.672C160.812 28.56 161.184 29.28 161.928 29.832C162.696 30.384 163.692 30.66 164.916 30.66C165.876 30.66 166.764 30.516 167.58 30.228C168.396 29.94 169.128 29.508 169.776 28.932V25.764C169.08 25.38 168.348 25.104 167.58 24.936C166.812 24.744 165.972 24.648 165.06 24.648C163.764 24.648 162.732 24.924 161.964 25.476C161.196 26.028 160.812 26.76 160.812 27.672Z" fill="#0C2146"/>
<path d="M9.98663 27.448L12.6426 24.12C13.944 25.2507 15.192 26.0827 16.3866 26.616C17.6026 27.128 18.8826 27.384 20.2266 27.384C21.6133 27.384 22.7226 27.128 23.5546 26.616C24.3866 26.104 24.8026 25.4213 24.8026 24.568C24.8026 23.8 24.5146 23.2027 23.9386 22.776C23.384 22.3493 22.4453 22.0293 21.1226 21.816L16.6746 21.048C14.7546 20.728 13.2933 20.056 12.2906 19.032C11.3093 18.008 10.8186 16.6853 10.8186 15.064C10.8186 12.9733 11.608 11.32 13.1866 10.104C14.7866 8.888 16.9413 8.28 19.6506 8.28C21.272 8.28 22.904 8.55733 24.5466 9.112C26.2106 9.66667 27.6613 10.4347 28.8986 11.416L26.4026 14.872C25.208 13.9547 24.0346 13.2827 22.8826 12.856C21.7306 12.408 20.5466 12.184 19.3306 12.184C18.0933 12.184 17.1013 12.4187 16.3546 12.888C15.608 13.336 15.2346 13.944 15.2346 14.712C15.2346 15.3947 15.48 15.928 15.9706 16.312C16.4613 16.696 17.2826 16.9733 18.4346 17.144L22.6586 17.848C24.8773 18.2107 26.5413 18.9253 27.6506 19.992C28.7813 21.0373 29.3466 22.424 29.3466 24.152C29.3466 26.328 28.4826 28.0667 26.7546 29.368C25.048 30.6693 22.7653 31.32 19.9066 31.32C18.1146 31.32 16.344 30.9787 14.5946 30.296C12.8666 29.6133 11.3306 28.664 9.98663 27.448Z" fill="white"/>
<defs>
<linearGradient id="paint0_linear_1_2557" x1="0" y1="20" x2="40" y2="20" gradientUnits="userSpaceOnUse">
<stop stop-color="#2979FF"/>
<stop offset="1" stop-color="#4C589E"/>
</linearGradient>
</defs>
</svg>
